<svg width="19" height="18" viewBox="0 0 19 18" fill="none" xmlns="http://www.w3.org/2000/svg">
<path opacity="0.5" fill-rule="evenodd" clip-rule="evenodd" d="M9.77615 0.0507812C7.36918 0.0507812 7.0671 0.0609237 6.12174 0.102383C5.17823 0.144021 4.5342 0.287972 3.97068 0.499185C3.38777 0.717337 2.8933 1.00915 2.40068 1.48407C1.90769 1.95881 1.60488 2.43533 1.37777 2.9969C1.15805 3.54014 1.00849 4.16097 0.96602 5.06988C0.923737 5.98092 0.912659 6.2722 0.912659 8.5918C0.912659 10.9114 0.923368 11.2016 0.966205 12.1127C1.0096 13.0219 1.15897 13.6426 1.37795 14.1856C1.60451 14.7474 1.90732 15.2239 2.40012 15.6986C2.89256 16.1737 3.38703 16.4663 3.96957 16.6844C4.53346 16.8956 5.17768 17.0396 6.121 17.0812C7.06637 17.1227 7.36825 17.1328 9.77505 17.1328C12.1822 17.1328 12.4834 17.1227 13.4287 17.0812C14.3722 17.0396 15.017 16.8956 15.5809 16.6844C16.1636 16.4663 16.6573 16.1737 17.1498 15.6986C17.6428 15.2239 17.9456 14.7474 18.1727 14.1858C18.3906 13.6426 18.5401 13.0217 18.5844 12.1128C18.6269 11.2018 18.638 10.9114 18.638 8.5918C18.638 6.2722 18.6269 5.9811 18.5844 5.07005C18.5401 4.16079 18.3906 3.54014 18.1727 2.99708C17.9456 2.43533 17.6428 1.95881 17.1498 1.48407C16.6568 1.00898 16.1638 0.717159 15.5803 0.499185C15.0153 0.287972 14.3709 0.144021 13.4274 0.102383C12.4821 0.0609237 12.1811 0.0507812 9.77338 0.0507812H9.77615ZM14.5085 3.00796C13.9213 3.00796 13.445 3.46651 13.445 4.03253C13.445 4.59837 13.9213 5.05745 14.5085 5.05745C15.0957 5.05745 15.572 4.59837 15.572 4.03253C15.572 3.46669 15.0957 3.00761 14.5085 3.00761V3.00796ZM9.77784 4.20564C7.26433 4.20564 5.22645 6.16954 5.22645 8.59181C5.22645 11.0141 7.26433 12.9771 9.77784 12.9771C12.2914 12.9771 14.3285 11.0141 14.3285 8.59181C14.3285 6.16954 12.2912 4.20564 9.77766 4.20564H9.77784ZM9.779 5.74465C11.4105 5.74465 12.7333 7.01922 12.7333 8.59166C12.7333 10.1639 11.4105 11.4387 9.779 11.4387C8.14733 11.4387 6.82475 10.1639 6.82475 8.59166C6.82475 7.01922 8.14733 5.74465 9.779 5.74465Z" fill="#353542"/>
</svg>
